<?xml version="1.0" encoding="UTF-8"?> <svg xmlns="http://www.w3.org/2000/svg" viewBox="0 0 146.99 64.01"> <defs> <style>.cls-1{fill:#392813;}</style> </defs> <title>Asset 1</title> <g id="Layer_2" data-name="Layer 2"> <g id="Layer_1-2" data-name="Layer 1"> <path class="cls-1" d="M15,28.07a2.19,2.19,0,0,0-.56-.38,4.06,4.06,0,0,0-.6-.31,4.15,4.15,0,0,0-.61-.23,5.18,5.18,0,0,0-.67,0,5.64,5.64,0,0,0-.65.06,5.83,5.83,0,0,0-.65,0,6.5,6.5,0,0,0-.65.1,5.93,5.93,0,0,0-.65.18,5,5,0,0,0-.62.27,4,4,0,0,0-.56.38,3.5,3.5,0,0,0-.56.4,2.94,2.94,0,0,0-.37.59,2.81,2.81,0,0,0-.23.65,3.09,3.09,0,0,0-.13.68,2.84,2.84,0,0,0,.09.7,2.14,2.14,0,0,0,.37.6,2.78,2.78,0,0,0,.46.5,5.1,5.1,0,0,0,.52.39c.17.12.33.36.54.49s.4.2.61.33.36.26.57.39.45.12.65.24l.61.36c.2.12.35.28.54.41l.58.39c.19.13.37.28.55.42s.43.25.61.4.32.3.48.47.29.37.44.55.28.37.41.56a6.89,6.89,0,0,1,.39.58,6.73,6.73,0,0,1,.24.66c.09.21.26.48.33.7a5.54,5.54,0,0,1,.13.61c0,.22,0,.46,0,.7s.09.45.09.69,0,.46,0,.69-.06.46-.08.69-.1.45-.15.67-.09.48-.15.71-.16.39-.24.61-.14.43-.24.64-.17.42-.29.63-.25.38-.38.57-.17.45-.32.63-.33.32-.5.49-.32.33-.5.49-.41.22-.6.36-.3.36-.5.49-.43.17-.63.29-.36.3-.57.41-.46.1-.67.2-.39.23-.61.32-.39.24-.61.33S9.24,51,9,51s-.43.17-.65.24-.45.1-.68.16L7,51.62l-.7.15c-.24.05-.48.06-.71.1s-.46.16-.7.19-.48,0-.72.06-.48.09-.71.11-.48.06-.72.06-.48-.16-.72-.17-.48,0-.72,0S.84,52.05.6,52H.28A.38.38,0,0,1,0,51.62l.12-.32c.08-.23.22-.44.29-.66s.18-.45.24-.68,0-.49.05-.73.1-.46.15-.7.13-.45.16-.7.08-.46.11-.71,0-.47,0-.72,0-.27,0-.42a.16.16,0,0,1,.27-.09l.29.28c.17.17.27.43.47.55a3.57,3.57,0,0,0,.68.22,3.94,3.94,0,0,0,.66.21,5.4,5.4,0,0,0,.72,0,6.28,6.28,0,0,0,.72.07c.23,0,.44-.14.67-.19s.46-.09.68-.16a6.79,6.79,0,0,0,.69-.2,5,5,0,0,0,.62-.36,4.52,4.52,0,0,0,.61-.37,4.24,4.24,0,0,0,.59-.43,3.29,3.29,0,0,0,.35-.63,2.94,2.94,0,0,0,.22-.67,2.71,2.71,0,0,0,.09-.7,3.06,3.06,0,0,0-.1-.71,2.31,2.31,0,0,0-.21-.68,2.81,2.81,0,0,0-.37-.61,6.48,6.48,0,0,0-.6-.45c-.18-.14-.35-.3-.57-.45s-.41-.23-.63-.37-.35-.33-.57-.47-.43-.18-.65-.31-.37-.32-.56-.44-.44-.17-.63-.3-.41-.22-.6-.35-.33-.34-.51-.48-.37-.27-.55-.43-.35-.3-.51-.46-.36-.3-.5-.48-.23-.41-.36-.6a6.12,6.12,0,0,1-.38-.57A5.82,5.82,0,0,1,1,34.62,5.42,5.42,0,0,1,.77,34a5.56,5.56,0,0,1-.2-.67,6.36,6.36,0,0,1,0-.7c0-.24,0-.47,0-.71s0-.47.08-.71.08-.47.13-.7.22-.43.29-.65.14-.45.23-.66.2-.42.31-.63.22-.41.34-.61.12-.49.26-.68.31-.36.47-.54.4-.27.57-.44.33-.33.52-.48.33-.34.52-.48.4-.25.6-.38.37-.29.58-.4.46-.17.68-.28L6.75,24c.21-.09.37-.24.59-.33s.48-.14.71-.22.46-.11.68-.18l.68-.2c.22-.06.43-.2.67-.25s.5,0,.73-.09l.72-.13c.25,0,.48-.14.71-.16s.5,0,.73-.05.5-.08.73-.08.5,0,.73,0,.51,0,.73,0,.49.13.71.18l.42.11c.11,0,.26.24.24.32s-.09.31-.13.45-.21.44-.27.65-.17.4-.22.61-.1.44-.15.66-.1.44-.14.66,0,.45,0,.67,0,.45-.07.67-.09.44-.13.79C15.37,28.27,15.25,28.34,15,28.07Z"></path> <path class="cls-1" d="M24.55,41.12c-.05.21-.24,1.1-.28,1.32s-.06.43-.1.65-.09.42-.12.64,0,.45-.06.67-.09.43-.11.65-.09.44-.11.65-.07.45-.07.66a2.15,2.15,0,0,0,.08.53c0,.16,0,.24-.13.25l-.54.06c-.23,0-.46.11-.69.15l-.7.11-.7.13-.69.15-.69.15c-.24.05-.5.07-.75.13s-.5.08-.75.14-.49.16-.73.22l-.53.15c-.09,0-.18-.15-.14-.28a10.44,10.44,0,0,0,.65-1.72,6.87,6.87,0,0,1,.14-.7c.07-.23.43-1.11.5-1.34l.2-.69c.06-.23.14-.45.21-.68s.1-.47.17-.7.13-.46.19-.69.08-.41.14-.64.21-.5.26-.73l.18-.72c.06-.23.06-.45.12-.68s.06-.48.11-.71.16-.45.21-.69.15-.46.2-.69,0-.48.08-.71.08-.47.13-.7l.16-.7c.05-.23.17-.4.22-.64s.09-.46.14-.7.08-.5.13-.74.16-.47.21-.7.14-.43.19-.66.07-.47.12-.7.06-.47.11-.7,0-.47.08-.71.12-.45.17-.68.09-.47.13-.7l.13-.65c0-.23.07-.52.12-.75s.13-.47.17-.71.13-.48.17-.71.07-.44.12-.67.11-.47.16-.7.13-.45.17-.68.07-.47.11-.7,0-.49,0-.72.12-.43.16-.66a2.74,2.74,0,0,0,.09-.51.38.38,0,0,1,.22-.25l.51,0c.23,0,.46-.1.7-.13s.48.06.72,0l.7-.1c.24,0,.45-.2.68-.24l.7-.11c.24,0,.48,0,.71-.06l.74-.14c.25,0,.49-.12.73-.16L30.5,19l.73-.16c.24-.05.51,0,.76,0a3.45,3.45,0,0,0,.47-.17c.09,0,.3,0,.31.11s.1.35.13.51,0,.48,0,.71.13.45.17.68,0,.48.07.71.21.44.26.67,0,.47.07.71.11.47.15.7,0,.46.09.69l.14.69c0,.23.15.45.2.68s.08.43.12.66,0,.51.07.74l.13.69.14.69c0,.23.21.44.26.67s.11.46.16.69.08.47.12.7l.14.66c0,.23,0,.52.09.75s.12.49.17.72,0,.43.07.66.11.46.16.69.09.46.14.69.1.46.15.69.18.45.23.67.08.47.13.69.16.45.22.67.13.45.18.68,0,.48.1.71.18.46.24.68.09.45.15.67.08.47.14.69.19.43.26.66.18.44.25.66.13.45.2.67.12.45.19.68.14.45.22.67.15.34.23.51-.08.16-.16.16h-.45c-.21,0-.42.1-.64.11s-.43,0-.64,0-.42.09-.64.11-.44,0-.65,0S35.17,45,35,45s-.5,0-.75.05-.49.11-.73.15-.5,0-.74.09-.46.22-.7.27l-.74.13a3.54,3.54,0,0,1-.41.05c-.1,0-.27-.09-.26-.16a3.72,3.72,0,0,0,0-.63c0-.23-.06-.46-.08-.7s-.06-.46-.08-.7,0-.47,0-.71-.15-.87-.23-1.39a8.15,8.15,0,0,0-.21-1.47,5,5,0,0,0-.65.17c-.34.06-.39.12-.73.19s-.36,0-.7,0-.35.12-.69.18-.34,0-.68.08-.34.1-.68.17-.33.19-.68.22S24.87,41,24.55,41.12Zm3-16c-.3.25-.32,1.1-.39,1.45s0,.56-.1.91-.06.27-.13.62,0,.42-.07.77-.05.29-.12.64-.12.34-.19.69-.12.34-.18.69,0,.36-.05.71-.08.35-.14.7,0,.36-.09.71-.08.35-.14.7-.07.35-.14.7a5.7,5.7,0,0,0-.27,1.36c.24.1.34,0,.71-.1s.37,0,.74-.1.36-.1.73-.16.36-.11.73-.17.49.06.71-.08A5.74,5.74,0,0,0,29,33.72c-.06-.35-.13-.34-.19-.69s0-.27-.09-.62,0-.45-.06-.8l-.12-.7c-.06-.35,0-.35-.1-.71s-.08-.35-.14-.7-.05-.35-.11-.71-.14-.52-.2-.87a10.46,10.46,0,0,1-.06-1.19A3.55,3.55,0,0,0,27.54,25.08Z"></path> <path class="cls-1" d="M54.52,43.29c-.19,0-.4,0-.57,0s-.47,0-.7,0-.46.07-.7.09l-.71,0c-.23,0-.45.09-.68.11l-.7.07c-.23,0-.47,0-.7,0s-.47,0-.7,0-.46.11-.69.13l-.7.08c-.23,0-.47,0-.7,0s-.46.07-.7.09l-.7.08c-.24,0-.48,0-.72,0l-.71.09c-.24,0-.47,0-.71,0l-.68.08c-.23,0-.49.1-.72.13s-.48,0-.71,0-.45.16-.69.21l-.43.06c-.09,0-.18-.1-.13-.17A1.91,1.91,0,0,0,40.3,44a6.36,6.36,0,0,0,.22-.65c.06-.2.11-.43.16-.67s0-.44.07-.68.06-.44.08-.67,0-.44,0-.68,0-.44,0-.68.06-.44.06-.68,0-.44,0-.68,0-.44,0-.68-.05-.44-.05-.71,0-.45,0-.71,0-.46,0-.71,0-.47,0-.71,0-.47,0-.71,0-.47,0-.71,0-.47,0-.71,0-.47,0-.71,0-.47,0-.71.1-.47.09-.71-.07-1.19-.06-1.42c0-.79,0-1.39.07-2.14,0-.24,0-.48,0-.71s0-.48,0-.71,0-.48,0-.71,0-.48,0-.71-.08-.48-.08-.71,0-.49,0-.72,0-.48,0-.71-.08-.48-.08-.7,0-.48,0-.7,0-.47,0-.7-.06-.46-.1-.69a6.66,6.66,0,0,0-.06-.71c-.06-.21-.14-.44-.23-.67a1.87,1.87,0,0,0-.23-.37c-.07-.09,0-.27.16-.25a3,3,0,0,0,.44,0c.25,0,.49-.06.73-.07s.48-.11.72-.12.49,0,.73,0l.72-.07c.24,0,.49,0,.73,0s.46-.12.7-.15l.71-.1.71-.09c.24,0,.48,0,.72-.06s.46-.16.69-.2a1.61,1.61,0,0,1,.39,0c.09,0,.2.11.17.17a3.08,3.08,0,0,0-.17.38,5.34,5.34,0,0,0-.26.66c-.05.21-.06.45-.1.69s0,.46,0,.7-.1.45-.12.69,0,1.85,0,2.09,0,1.16,0,1.39,0,.43,0,.67-.07.49-.07.73,0,.47,0,.72,0,.48,0,.72,0,.47,0,.72.09.66.1.91a6.11,6.11,0,0,1-.08,1.25c0,.24-.09,1.2-.08,1.44a13.2,13.2,0,0,1,.05,1.4c0,.24-.07.53-.07.77s0,.48,0,.72,0,.48,0,.72,0,.48,0,.72,0,.48,0,.72,0,.45,0,.65a5.75,5.75,0,0,0,0,.68,6.49,6.49,0,0,0,.1.86c.25.09.53-.06.77,0a2.43,2.43,0,0,0,.63.18c.2,0,.41-.06.66-.07s.42,0,.66,0,.42-.1.66-.12l.69,0c.23,0,.46,0,.69,0s.47,0,.69,0,.46-.09.68-.15a6.53,6.53,0,0,0,.63-.28,5.69,5.69,0,0,0,.61-.33l.39-.25c.08-.06.19,0,.15.09a4.63,4.63,0,0,0-.15.45c-.05.22,0,.46,0,.68s-.11.43-.16.65-.1.44-.14.66-.09.44-.13.66-.17.43-.2.65-.08.44-.11.66,0,.46,0,.68-.08.46-.1.68a2.31,2.31,0,0,0,0,.52C54.7,43.17,54.58,43.3,54.52,43.29Z"></path> <path class="cls-1" d="M59,25.4c0-.23,0-.46,0-.68s0-1.14,0-1.37,0-.45,0-.68-.07-.45-.09-.68a2.41,2.41,0,0,0,0-.68c-.23-.16-.43,0-.65,0l-1.32,0-.66,0c-.22,0-.44,0-.66,0a5,5,0,0,0-.72.11,2.55,2.55,0,0,0-.67.25,1.92,1.92,0,0,0-.59.4,1,1,0,0,0-.2.28c0,.1-.14.08-.14-.06s0-.31,0-.42,0-1.17,0-1.42,0-.51,0-.76,0-.45,0-.68,0-.49,0-.73,0-.44,0-.67.07-.47.06-.71a3.87,3.87,0,0,0-.09-.5c0-.07.1-.19.17-.19s.36.05.54.05.48,0,.73,0,.48,0,.73,0,.5,0,.74,0l.71,0,1.45,0,1.41-.05c.24,0,1.25.05,1.49,0s.93-.08,1.49-.11c.24,0,1.13-.07,1.37-.07.57,0,1.16,0,1.4,0l1.41-.07c.23,0,1-.1,1.22-.11l2.3-.11.7-.06.44,0c.08,0,.23.12.23.18s0,.31,0,.48-.11.46-.13.69,0,.47-.05.7,0,.47,0,.7-.05.46-.06.69,0,.46,0,.7,0,.48,0,.71,0,.47,0,.71,0,.37.05.55a.08.08,0,0,1-.12.08,3.57,3.57,0,0,0-.48-.33,2.79,2.79,0,0,0-.63-.39,4.19,4.19,0,0,0-.73-.14c-.24,0-.47,0-.72,0S68.2,21,68,21l-1.43,0c-.24,0-.61-.09-.76,0a3.78,3.78,0,0,0,0,.79c0,.23,0,.49,0,.73s0,.52,0,.73-.06.47-.06.7,0,.47,0,.7,0,.47,0,.7,0,.48,0,.71,0,.44,0,.67.06.5.06.73,0,.46,0,.69,0,.47,0,.7-.06.48-.06.71,0,.46,0,.69-.07.47-.07.7.09.52.08.75c0,1.1,0,2.51,0,2.74s0,1.17,0,1.39,0,.47,0,.7,0,.47,0,.7,0,.48,0,.7.07.48.08.69,0,.48,0,.69,0,.48.05.69.1,1.18.14,1.39a5.25,5.25,0,0,0,.18.68,2.23,2.23,0,0,0,.21.39c0,.07,0,.22-.09.22H66c-.23,0-.45-.08-.68-.09h-.7l-.69,0c-.23,0-.45,0-.68,0l-.71,0c-.24,0-.47.06-.7.08l-.7.07c-.23,0-.8,0-1,.06L59.06,43l-.49.07c-.06,0-.16-.11-.14-.19s.06-.29.09-.44.12-.45.16-.68,0-.43,0-.66,0-.45.07-.68.11-.44.13-.67,0-.45,0-.68.08-.45.09-.68,0-.46,0-.68,0-.47,0-.7,0-.44,0-.67.07-.46.07-.68-.1-.62-.1-1,0-.7,0-1-.08-.48-.08-.82.08-.94.08-1.28,0-.34,0-.68S59,30.36,59,30s.05-.85.05-1.19,0-.34,0-.68,0-1,0-1.37,0-.34,0-.69S59,25.75,59,25.4Z"></path> <path class="cls-1" d="M92.7,43.17l-.41,0-.7-.07c-.23,0-.46-.08-.69-.1l-.7-.07c-.23,0-.47,0-.7,0s-.46-.09-.7-.1-.47.07-.7.05-.46-.06-.7-.07-.47,0-.7,0-.46-.12-.69-.13-.47,0-.7,0l-.68,0c-.23,0-.49-.07-.72-.08l-.7,0c-.24,0-.47.06-.71.05s-.47-.06-.7-.07-.47,0-.71,0h-.7c-.23,0-.47,0-.7,0s-.47-.05-.71,0a1.38,1.38,0,0,0-.52.09c-.11.05-.16,0-.08-.18s.11-.27.17-.41a5.15,5.15,0,0,0,.29-.6,6.62,6.62,0,0,0,.2-.64c0-.2,0-.42.06-.66s.05-.43.07-.67,0-.43,0-.67.07-.43.08-.66,0-.43,0-.67,0-.44,0-.67.07-.44.07-.67,0-.43,0-.69,0-.46,0-.7,0-.44,0-.68.09-.45.09-.69,0-.46,0-.69,0-.46,0-.69a8.69,8.69,0,0,0-.09-.88c0-.59,0-1,0-1.2s0-.46,0-.69,0-.47,0-.7,0-.45,0-.69,0-.47,0-.7-.06-1.15-.06-1.38,0-.46,0-.69,0-.47,0-.69,0-.47,0-.69,0-.47,0-.69,0-.45,0-.67,0-1,0-1.22,0-.65,0-.87a12.23,12.23,0,0,0-.07-1.37q0-.34-.08-.68c0-.23-.08-.45-.12-.67s-.14-.43-.2-.65-.07-.45-.16-.67a2.9,2.9,0,0,0-.2-.38c0-.08,0-.23.09-.22l.53.07c.24,0,.49,0,.74,0s.48.09.73.11l.73,0,.73,0c.24,0,.48.14.73.15s.48,0,.72,0,.48,0,.72,0l1.44,0c.24,0,.48,0,.72,0h.44c.09,0,.17.12.12.18a6.86,6.86,0,0,0-.38,1.08c-.05.21-.12.43-.16.67s0,.46-.07.7-.07.45-.09.69-.05.45-.06.7,0,.46,0,.7,0,.46-.05.7,0,.4,0,.64-.07.52-.07.76,0,.46,0,.7.05.46.05.71,0,.43,0,.67-.07.5-.07.75,0,.47,0,.71.05.47.05.71-.08.47-.08.71,0,.47,0,.71,0,.47,0,.71.05.47.05.71,0,.4,0,.63,0,.52-.05.75.08.51.08.75-.06.48-.06.71.05.48.05.71,0,.44,0,.67-.09.52-.09.75.1.47.11.68a5.33,5.33,0,0,0,0,.68c0,.25,0,.78,0,1a9,9,0,0,0,1.42.17c.2,0,.41.13.66.15s.43,0,.68,0l.68.05c.22,0,.45,0,.67,0s.45.09.67.09.45-.05.67-.07.45,0,.67-.06a6.1,6.1,0,0,0,.64-.24,4.92,4.92,0,0,0,.66-.13l.23-.12s.25,0,.22.14a10.47,10.47,0,0,0-.2,1c0,.39-.21.76-.28,1.41,0,.24-.13.46-.17.7s0,.48-.07.72-.09.48-.12.72,0,.47-.07.71,0,.27,0,.4A.47.47,0,0,1,92.7,43.17Z"></path> <path class="cls-1" d="M96.3,24.08c0-.24,0-.48,0-.71s-.09-.49-.09-.71.06-.48.06-.71,0-.48,0-.71,0-.49,0-.71,0-.49,0-.71,0-.51,0-.73,0-.49,0-.71-.07-.47-.1-.68,0-.5,0-.72a2.88,2.88,0,0,0-.12-.41c0-.08,0-.22,0-.21s.36,0,.55.05.47.07.71.11.44.1.67.14.47.1.7.13l.71.06c.24,0,.5.1.73.12s.49,0,.73,0,.5.07.75.08.47,0,.72,0h.76l.57,0a.12.12,0,0,1,.08.17,2.34,2.34,0,0,0-.24.49,5.81,5.81,0,0,0-.13.71c0,.22,0,.47,0,.72s0,.47-.06.71,0,.47-.05.72-.1.47-.1.72c0,.57,0,.88,0,1.44,0,.24,0,.48,0,.72s.06.78.07,1c0,.79-.09,1.43-.09,1.77s0,.34,0,.67,0,.34,0,.67,0,.34,0,.67,0,.34,0,.67,0,.33,0,.67-.08.34-.06.68c0,.58.08,1,.08,1.35s0,.34,0,.67,0,.33,0,.67-.05.79-.09,1.36c0,.24,0,.48,0,.71s0,.44,0,.67,0,.52,0,.75,0,.48,0,.71,0,.48,0,.71-.06.49,0,.71,0,.48,0,.71.09.48.1.71.09.48.11.71.06.48.09.7,0,.52,0,.74,0,.47.1.69a5.89,5.89,0,0,0,.21.69,2.07,2.07,0,0,0,.3.47.1.1,0,0,1-.1.16l-.55-.08c-.24,0-.44-.11-.67-.15l-.76-.1-.73-.07c-.24,0-.47-.17-.71-.2s-.49,0-.74,0-.48-.09-.72-.11l-.72,0c-.24,0-.47-.06-.72-.07s-.49.07-.73.07h-.72a4,4,0,0,1-.51-.07c-.07,0-.09-.2,0-.31a1.4,1.4,0,0,0,.14-.3,6.25,6.25,0,0,0,.14-.62c0-.2.1-.45.13-.69s.07-.43.09-.66,0-.43,0-.66.05-.44.06-.67,0-.44,0-.67,0-.42,0-.64,0-.46,0-.69-.09-.43-.09-.66,0-.36,0-.71.07-.35.07-.71,0-.27,0-.62,0-.45,0-.8,0-.34,0-.7.07-.35.07-.71,0-.35,0-.71,0-.35,0-.71,0-.35,0-.71-.05-.35-.05-.71,0-.35,0-.71-.06-.35-.06-.71,0-.35,0-.71,0-.35,0-.71,0-.35,0-.71,0-.35,0-.71,0-.35,0-.71S96.3,24.44,96.3,24.08Z"></path> <path class="cls-1" d="M121.44,46.2l-.48.08c-.23,0-.45.14-.68.16l-.7,0c-.23,0-.47,0-.7,0s-.47-.12-.7-.13-.47-.07-.69-.1-.46,0-.69-.08-.45-.13-.67-.17-.46-.06-.68-.11-.47,0-.69-.1-.42-.21-.64-.28-.46-.09-.67-.17l-.64-.26c-.22-.09-.4-.25-.6-.35l-.6-.33c-.2-.12-.42-.2-.61-.33s-.44-.19-.62-.33-.36-.36-.53-.51-.34-.26-.5-.42-.27-.38-.42-.56-.34-.32-.47-.51-.18-.44-.3-.63-.2-.41-.31-.62-.28-.37-.37-.59-.1-.45-.19-.67-.2-.41-.27-.64-.09-.45-.15-.68-.11-.44-.16-.67-.06-.45-.1-.68-.07-.45-.11-.68-.17-.44-.19-.67,0-.46-.07-.69-.08-.46-.09-.69,0-.46,0-.69,0-.49,0-.73,0-1.14,0-1.37.08-.47.09-.7.06-.73.13-1.4c0-.24.06-.47.1-.7s0-.48.08-.7.17-.45.23-.67.11-.46.18-.68.1-.47.18-.69.16-.45.25-.66.23-.42.33-.63.25-.4.36-.61.27-.39.39-.59.24-.41.37-.6.31-.35.46-.53.3-.36.46-.53.29-.38.47-.53.37-.26.56-.4.36-.34.56-.46.41-.24.62-.35.45-.15.67-.24.43-.18.66-.25.45-.11.68-.17.46-.08.69-.12.46,0,.7,0,.46,0,.7,0,.46,0,.7,0,.46,0,.7,0,.46,0,.7.06.44.12.66.16.47-.05.69,0l.66.14c.22.05.43.16.64.22s.41.19.63.26.45.08.66.16l.42.15a.38.38,0,0,1,.17.29c0,.17-.07.34-.13.5s-.19.45-.25.68-.18.49-.24.72-.11.43-.16.67-.15.46-.2.7-.07.66-.12.9-.18.73-.18.85-.16.16-.24,0a1.21,1.21,0,0,0-.16-.23,3.56,3.56,0,0,0-.58-.43,3.74,3.74,0,0,0-.58-.44,4.3,4.3,0,0,0-.69-.22,5.51,5.51,0,0,0-.7-.17,4.61,4.61,0,0,0-.7,0,3.89,3.89,0,0,0-.69.07,3.54,3.54,0,0,0-.68.15,3.33,3.33,0,0,0-.56.42,3.47,3.47,0,0,0-.51.45,4.23,4.23,0,0,0-.5.48,5.3,5.3,0,0,0-.41.56c-.11.2-.21.42-.3.64s-.13.44-.2.67-.09.45-.14.68-.06.45-.11.68-.14.43-.17.66,0,.47,0,.7-.12.46-.13.68,0,.47,0,.69,0,.49,0,.72,0,.45,0,.67,0,.47,0,.69.08.46.09.69.05.46.07.69,0,.47,0,.69.06.46.09.69.15.45.19.67.28,1.12.36,1.33.13.45.23.65a5.59,5.59,0,0,0,.42.55,5,5,0,0,0,.4.55,4.74,4.74,0,0,0,.48.49,5,5,0,0,0,.51.47,5.87,5.87,0,0,0,.64.28,6.43,6.43,0,0,0,.63.27c.21.07.43.14.66.19s.43.15.66.19a4.44,4.44,0,0,0,.75,0,5.27,5.27,0,0,0,.74-.05,6.28,6.28,0,0,0,.75-.08,6.61,6.61,0,0,0,.72-.24l.34-.14c.11,0,.25,0,.22.13a2.89,2.89,0,0,0-.08.51c0,.23-.07.41-.1.64s-.08.45-.12.69-.06.46-.09.69-.11.49-.13.72,0,.49,0,.72,0,.35-.05.51A.42.42,0,0,1,121.44,46.2Z"></path> <path class="cls-1" d="M132.15,43.62c0,.33.05.59,0,.81s0,.49,0,.86,0,.44,0,.68,0,.55,0,.79a7,7,0,0,0,.07.76,6.43,6.43,0,0,0,.14.75l.12.39c0,.09-.09.22-.17.19l-.3-.09c-.22-.07-.45-.09-.66-.15s-.43-.16-.64-.22-.43-.14-.65-.19l-.66-.15c-.22,0-.46,0-.68-.08s-.43-.15-.66-.19-.45,0-.68-.09-.47-.11-.7-.15-.43,0-.65,0-.46,0-.68-.05-.34-.08-.52-.12a.16.16,0,0,1-.07-.22,1.64,1.64,0,0,0,.32-.49,2.87,2.87,0,0,0,.13-.8c0-.31,0-.45.05-.71s0-.53,0-.78,0-.46,0-.71.09-.51.09-.75,0-.35,0-.71,0-.35,0-.71,0-.35,0-.71.05-.35.05-.71,0-.35,0-.71.05-.8.05-1.15,0-.62,0-1-.06-.33-.06-.69.06-.73.06-1.08,0-.71,0-1.06,0-.35,0-.71-.06-.35-.06-.71,0-1.06,0-1.42,0-.45,0-.67,0-.47,0-.69,0-.46,0-.68,0-.46,0-.68.06-.46.06-.68,0-.46,0-.68-.09-.49-.09-.71c0-.8.08-1.26,0-2,0-.23,0-.46-.05-.68s0-.46-.06-.68-.06-.46-.09-.68S125,22.24,125,22s-.11-.45-.16-.65a5.2,5.2,0,0,0-.17-.65c-.06-.14-.09-.25-.13-.35a.13.13,0,0,1,.11-.16,1.43,1.43,0,0,1,.37,0l.63.2c.21.06.39.25.6.3l.64.15.65.13c.22,0,.47.06.68.1s.43.14.66.18l.74.11.65.11c.23,0,.48,0,.72.08s.45.09.68.13.47,0,.71,0l.51,0a.17.17,0,0,1,.12.24,2.48,2.48,0,0,0-.24.46,4.34,4.34,0,0,0-.19.68,6.21,6.21,0,0,0-.17.68c0,.21-.13.5-.16.77s0,.4-.06.66,0,.44,0,.7,0,.45,0,.71,0,.6,0,.85,0,.79,0,1,0,.53,0,1c0,.67,0,1.17,0,1.41s-.08.47-.08.71,0,.39,0,.78,0,.39,0,.78a1.88,1.88,0,0,0,.07.76c.16,0,.61-.82.75-1s.56-1.05.68-1.27.46-1,.57-1.21.33-.48.44-.7.17-.45.28-.67.25-.39.35-.61.18-.47.27-.69.23-.43.32-.65.2-.45.28-.67.15-.46.22-.69.17-.47.23-.69a3.83,3.83,0,0,0,0-.74c0-.26,0-.48,0-.71a5.34,5.34,0,0,0,0-.61c0-.24,0-.28.29-.22l1,.28c.22.07,1.75.66,2,.72s.46.1.68.16.44.17.66.24,1.2.27,1.44.33.5.1.74.15.44.18.68.24l.71.17c.24.05.49.06.73.11l.46.11a.14.14,0,0,1,.06.21,2.62,2.62,0,0,1-.32.32c-.18.14-.48.15-.66.3l-.54.46c-.17.15-.29.37-.46.54l-.5.49c-.16.16-.3.35-.47.53s-.3.35-.46.53l-.46.55c-.15.18-.37.28-.52.47s-.28.38-.42.56l-.42.56c-.14.18-.22.42-.36.61s-.26.38-.4.58-.33.38-.47.58-.21.38-.34.58-.28.37-.41.57l-.38.59a2.52,2.52,0,0,0-.39.57,2.34,2.34,0,0,0,.21.66l.32.62c.1.21.27.38.38.59l.32.62c.1.21.11.47.22.68s.24.4.34.61.19.42.29.63l.31.63c.1.21.23.41.33.62s.24.4.35.61.25.4.35.61.19.43.29.64.1.47.2.68.18.43.28.64.28.38.38.59l.3.63c.1.21.28.39.38.59l.31.63c.1.21.12.46.23.67s.19.43.29.64.26.4.36.6.17.44.28.65.21.42.31.63.27.39.38.59.24.41.35.6.15.46.26.65l.35.61a7.17,7.17,0,0,0,.49.78c.09.12,0,.21-.1.15l-.17-.08c-.21-.08-.45-.08-.65-.15s-.42-.18-.62-.25l-.61-.19-.62-.2c-.21-.06-.43-.08-.64-.14s-.39-.17-.6-.23-.41-.18-.62-.24-.49-.08-.71-.15l-.66-.17-.68-.14-.69-.13c-.23,0-.44-.17-.67-.22l-.69-.13c-.21,0-.39-.1-.6-.15a.1.1,0,0,1,0-.08,2.33,2.33,0,0,0,.07-.48,3.41,3.41,0,0,0-.09-.67c0-.2-.05-.43-.12-.67s-.17-.42-.25-.64-.13-.43-.22-.64-.17-.42-.26-.63-.25-.38-.34-.59-.22-.4-.31-.6-.17-.42-.27-.62-.22-.4-.32-.6-.15-.44-.25-.64l-.31-.61c-.11-.21-.28-.38-.38-.57a6.91,6.91,0,0,1-.28-.63c-.1-.24-.18-.52-.3-.56a1.28,1.28,0,0,0-.42.47c-.17.27-.16.36-.33.62s-.09.23-.27.5-.18.26-.37.52A3.58,3.58,0,0,0,132.15,43.62Z"></path> <path class="cls-1" d="M55.35,53.41c0-.24,0-.47,0-.69s0-1.16,0-1.38A11.08,11.08,0,0,0,55.26,50a3,3,0,0,0-.19-.67,4.06,4.06,0,0,0-.16-.45.13.13,0,0,1,.14-.17l.45.05c.19,0,.4.11.64.13s.43-.08.65-.08.43,0,.64,0l.75,0,.75,0c.23,0,.48-.07.75-.08l.75-.05.75,0,.76,0c.23,0,.45,0,.67.05s.45.07.66.11a5.45,5.45,0,0,1,.65.15,4.15,4.15,0,0,1,.62.25,3.29,3.29,0,0,1,.58.33,2.73,2.73,0,0,1,.47.49,2.65,2.65,0,0,1,.28.6,2.9,2.9,0,0,1,.27.62,4,4,0,0,1,0,.67,4.19,4.19,0,0,1,0,.66,2.86,2.86,0,0,1-.55,1.19,2.69,2.69,0,0,1-.5.42,3.32,3.32,0,0,1-.54.37,5.19,5.19,0,0,1-.63.19c-.2.06-.42.1-.64.14l-.36.08s0,.08,0,.08l.41,0c.22,0,.45.11.69.17a5.48,5.48,0,0,1,.67.24,3.78,3.78,0,0,1,.65.29,2.87,2.87,0,0,1,.58.43,2.56,2.56,0,0,1,.39.61,2.93,2.93,0,0,1,.14.69,3.1,3.1,0,0,1,.08.66,3.66,3.66,0,0,1-.1.78,3.42,3.42,0,0,1-.21.72,3.47,3.47,0,0,1-.38.65,3.54,3.54,0,0,1-.5.58,3.78,3.78,0,0,1-.54.37,3.87,3.87,0,0,1-.59.26,4.51,4.51,0,0,1-.6.25c-.2,0-.43,0-.66,0s-.42,0-.64,0-.42.13-.64.13l-.71,0h-.71c-.42,0-.89-.12-1.41-.12-.25,0-.48-.08-.7-.08s-.51,0-.71,0l-.64,0c-.2,0-.42,0-.64,0s-.43.1-.64.12a4,4,0,0,1-.42,0c-.06,0-.08-.19,0-.29a2.63,2.63,0,0,0,.13-.33,5.47,5.47,0,0,0,.09-.71c0-.23.05-.47.07-.71s.07-.49.08-.73,0-.46,0-.7,0-.48,0-.71.06-.35.06-.7,0-.35,0-.7,0-.31,0-.66,0-.4,0-.75-.07-.35-.09-.7S55.35,53.76,55.35,53.41Zm5.06.49a3.87,3.87,0,0,0,.71-.05,1.63,1.63,0,0,0,.71-.16,1.38,1.38,0,0,0,.42-.63,2.06,2.06,0,0,0,.12-.71,2.29,2.29,0,0,0-.12-.71,1.31,1.31,0,0,0-.41-.57,1.39,1.39,0,0,0-.63-.28,3.08,3.08,0,0,0-.69-.09c-.21,0-.41-.07-.6-.06a1.74,1.74,0,0,0-.56.08,2.78,2.78,0,0,0-.06.7c0,.25,0,.46,0,.68s0,.44,0,.68,0,.35,0,.57a1.32,1.32,0,0,0,0,.59A5.59,5.59,0,0,0,60.41,53.9ZM59.34,58c0,.28,0,.5,0,.7a7.12,7.12,0,0,0,0,.79,2.36,2.36,0,0,0,.68.17,3.4,3.4,0,0,0,.69.15,3.9,3.9,0,0,0,.74-.07,1.54,1.54,0,0,0,.65-.34,1.27,1.27,0,0,0,.37-.61,2.19,2.19,0,0,0,.13-.71,2.3,2.3,0,0,0,0-.82,1.41,1.41,0,0,0-.52-.62,1.23,1.23,0,0,0-.63-.3,5.82,5.82,0,0,0-.72-.07c-.21,0-.44,0-.72,0s-.55-.1-.71,0a2.5,2.5,0,0,0,0,.59,5.75,5.75,0,0,0,0,.59A5.84,5.84,0,0,1,59.34,58Z"></path> <path class="cls-1" d="M68.7,53.41c0-.24,0-.47,0-.69s0-.47,0-.69.07-.47.06-.69-.05-.47-.08-.69-.13-.45-.17-.67-.09-.45-.15-.67-.1-.35-.16-.52,0-.14.05-.13l.58.05.64.06c.2,0,.42.08.64.09s.43,0,.65,0,.49,0,.76,0,.48-.08.75-.1.48-.07.75-.09.49.07.76.06.48-.08.75-.08l.76,0c.23,0,.45,0,.67,0s.45.06.66.09a5.52,5.52,0,0,1,.66.14,4.25,4.25,0,0,1,.63.23,3.32,3.32,0,0,1,.58.35,2.75,2.75,0,0,1,.45.51,2.62,2.62,0,0,1,.3.59,2.93,2.93,0,0,1,.18.63,3.72,3.72,0,0,1,.07.66,3.62,3.62,0,0,1-.08.65,2.79,2.79,0,0,1-.15.63,2.33,2.33,0,0,1-.34.56,3.26,3.26,0,0,1-.5.41,3.69,3.69,0,0,1-1.15.6c-.2.05-.41.13-.63.17l-.32,0s0,.07,0,.07l.37,0c.22,0,.47.06.7.12a5.73,5.73,0,0,1,.65.3,3.73,3.73,0,0,1,.63.31,2.76,2.76,0,0,1,.53.46,2.41,2.41,0,0,1,.42.56,2.7,2.7,0,0,1,.28.66,4,4,0,0,1,0,.72,3.36,3.36,0,0,1-.07.75,3.57,3.57,0,0,1-.31.7,1.94,1.94,0,0,1-.88,1.21,3.75,3.75,0,0,1-.51.4,3.81,3.81,0,0,1-.57.32c-.19.07-.43.07-.65.13a8.27,8.27,0,0,1-1.27.2c-.2,0-.42,0-.65,0l-.7,0c-.22,0-.45-.07-.7-.08s-.47,0-.71,0l-.71,0h-.71c-.27,0-.5,0-.7,0s-.4-.09-.64-.08-.42,0-.64.05-.43.09-.64.11-.32,0-.47,0-.1-.1-.08-.15.08-.33.13-.5a5.2,5.2,0,0,0,.15-.69c0-.23.13-.46.15-.7s0-.48,0-.72.05-.47.05-.71,0-.48,0-.71,0-.35,0-.7,0-.35,0-.7.12-.35.12-.7,0-.35,0-.7,0-.35-.06-.7S68.7,53.76,68.7,53.41Zm5,.57a4.3,4.3,0,0,0,.73-.08,1.51,1.51,0,0,0,.64-.29,1.17,1.17,0,0,0,.48-.53,2.25,2.25,0,0,0,.09-.72,2,2,0,0,0-.17-.68,1.21,1.21,0,0,0-.35-.57,1.34,1.34,0,0,0-.6-.3,2.92,2.92,0,0,0-.69-.08l-.59,0a3.16,3.16,0,0,0-.65,0,2,2,0,0,0,0,.67c0,.25,0,.46,0,.68s0,.44,0,.68,0,.39,0,.61a1.93,1.93,0,0,0,0,.61A5.63,5.63,0,0,0,73.74,54ZM72.69,58c0,.28,0,.51,0,.7s0,.66,0,.88a1.49,1.49,0,0,0,.69.17,5.48,5.48,0,0,0,.71,0,4.32,4.32,0,0,0,.72-.13,1.4,1.4,0,0,0,.64-.28,1.18,1.18,0,0,0,.39-.58,2.19,2.19,0,0,0,.11-.71,2.67,2.67,0,0,0-.1-.79,1.33,1.33,0,0,0-.38-.7,1.49,1.49,0,0,0-.67-.3,9.42,9.42,0,0,0-1.35-.06,1.91,1.91,0,0,0-.81,0,3.4,3.4,0,0,0,0,1.15C72.67,57.75,72.69,57.75,72.69,58Z"></path> <path class="cls-1" d="M95,64l-.68-.07c-.54,0-1.1,0-1.35,0a19,19,0,0,0-2-.08.3.3,0,0,1-.26-.12c-.13-.22-.22-.4-.33-.56s-.35-.39-.52-.61a3.67,3.67,0,0,0-.52-.6,1.89,1.89,0,0,0-.63,0,7.89,7.89,0,0,1-1.35,0c-.24,0-.55,0-.77,0s-.37-.14-.59-.18-.45-.12-.66-.19a6.49,6.49,0,0,1-.66-.21,5.76,5.76,0,0,1-.64-.27,5.31,5.31,0,0,1-.6-.35,6.94,6.94,0,0,1-1-1,5.42,5.42,0,0,1-.35-.6,5.94,5.94,0,0,1-.29-.63,6.87,6.87,0,0,1-.21-.66c-.06-.22-.13-.44-.18-.67s-.13-.44-.16-.68,0-.47,0-.71,0-.45,0-.68.07-.48.08-.71,0-.48,0-.71.18-.45.23-.68,0-.49.1-.7a6.24,6.24,0,0,1,.27-.66,5.53,5.53,0,0,1,.36-.61,5.64,5.64,0,0,1,.39-.61,4.91,4.91,0,0,1,.52-.46,5.22,5.22,0,0,1,.56-.43,5.64,5.64,0,0,1,.6-.38,6.08,6.08,0,0,1,.67-.22,6.92,6.92,0,0,1,.66-.25c.23-.06.47-.12.7-.15s.45-.13.68-.15.48-.05.71-.05.48,0,.7.07.46.12.69.15a6.8,6.8,0,0,1,.67.16,6.65,6.65,0,0,1,.69.13,5.28,5.28,0,0,1,.61.33,5.52,5.52,0,0,1,.65.28c.19.14.28.4.44.56a5,5,0,0,1,.5.48,5.33,5.33,0,0,1,.39.58,6,6,0,0,1,.26.65,6.71,6.71,0,0,1,.26.64c.07.22.07.46.11.69s.14.44.17.68.07.43.09.66,0,.5,0,.73,0,.49,0,.73,0,.47,0,.71-.12.52-.17.75-.06.48-.14.71a7.2,7.2,0,0,1-.24.7,5.9,5.9,0,0,1-.35.65,4.78,4.78,0,0,1-.46.58,5,5,0,0,1-.45.47.16.16,0,0,0,0,.13,5.81,5.81,0,0,0,.44.47l.41.47c.15.18.25.38.39.54l.42.51c.15.18.29.36.43.51s.35.3.5.44l.34.34A.06.06,0,0,1,95,64ZM87.79,50.57a2,2,0,0,0-.71.07,1.61,1.61,0,0,0-.59.42,2.23,2.23,0,0,0-.34.63,3.72,3.72,0,0,0-.28.66,6.68,6.68,0,0,0-.13.71c0,.23,0,.47,0,.72s0,.47,0,.71.06.48.06.71,0,.48,0,.72-.08.48-.06.72.13.48.15.71a7.15,7.15,0,0,0,.08.73,3.42,3.42,0,0,0,.26.64,2.28,2.28,0,0,0,.29.65,1.62,1.62,0,0,0,.59.43,2.06,2.06,0,0,0,.72.09,1.83,1.83,0,0,0,.67-.15,1.28,1.28,0,0,0,.51-.42,1.83,1.83,0,0,0,.35-.57,3.79,3.79,0,0,0,.17-.66c0-.21.09-.44.11-.68s0-.45,0-.69,0-.45,0-.69,0-.46,0-.69,0-.46,0-.7,0-.48,0-.72-.08-.48-.1-.71,0-.47-.08-.7a3.81,3.81,0,0,0-.19-.69,2.15,2.15,0,0,0-.84-1.08A1.31,1.31,0,0,0,87.79,50.57Z"></path> <path class="cls-1" d="M65.46,5.6c0-.11,0-.21,0-.31s0-.21,0-.32,0-.21,0-.31a1.15,1.15,0,0,0,0-.31,1.28,1.28,0,0,0-.35.11l-.35.1c-.11,0-.21.13-.33.17a2.08,2.08,0,0,0-.34.1,1.11,1.11,0,0,0-.26.24,1.13,1.13,0,0,0-.14.2s0,0,0,0,0-.14,0-.2,0-.21,0-.32,0-.21,0-.32,0-.25,0-.37,0-.25,0-.37,0-.2,0-.3a.1.1,0,0,1,0-.06l.26-.07.31-.12.62-.22.62-.21.32-.08c.1,0,.22,0,.32-.08l.32-.1.32-.1L67,2.24c.11,0,.2-.11.3-.15l.3-.14.32-.1.32-.1.31-.12.31-.12.3-.14.23-.1s.06,0,.05,0,0,.16,0,.25,0,.23,0,.34,0,.23,0,.34,0,.23,0,.34,0,.23,0,.34,0,.17,0,.26a0,0,0,0,1,0,0,.69.69,0,0,0-.32,0,1.48,1.48,0,0,0-.4,0l-.39.11c-.12,0-.18.09-.25.12a.81.81,0,0,0-.25.12,2.17,2.17,0,0,0,0,.32c0,.12-.05.24-.05.33s0,.21,0,.33,0,.24,0,.35,0,.28,0,.39,0,.2,0,.31,0,.29,0,.4,0,.4,0,.51c0,.44,0,.8,0,.91s0,.24,0,.36,0,.24,0,.36,0,.25,0,.36,0,.24,0,.35,0,.26,0,.36,0,.25.06.35a2,2,0,0,0,.08.35,2.07,2.07,0,0,0,.07.25s0,.06,0,.06h-.25c-.11,0-.22,0-.33,0H67c-.11,0-.22.06-.33.06s-.23,0-.34,0-.22.06-.33.08l-.34.05-.29,0s0,0,0-.06,0-.18.05-.27,0-.22,0-.34,0-.22,0-.33,0-.22,0-.33,0-.22,0-.33,0-.23,0-.34,0-.23,0-.34,0-.23,0-.34,0-.17,0-.35,0-.13,0-.3,0-.22,0-.4,0-.18,0-.35,0-.16,0-.33S65.45,5.78,65.46,5.6Z"></path> <path class="cls-1" d="M72.68,6.79c0,.08,0,.24,0,.41s0,.24,0,.37,0,.25,0,.37,0,.25,0,.37-.05.26-.05.37.06.24.06.36,0,.23,0,.35a2.46,2.46,0,0,0,0,.35,1.66,1.66,0,0,0,.14.29s0,.06,0,.06H72.3c-.1,0-.2-.05-.31-.05l-.31,0h-.75l-.37,0-.31.06a0,0,0,0,1,0-.05,1.58,1.58,0,0,0,.1-.26,1.81,1.81,0,0,0,.09-.32c0-.09,0-.2,0-.32s0-.21,0-.34,0-.21,0-.33,0-.4,0-.52,0-1,0-1.15,0-.17,0-.34,0-.17,0-.34,0-.17,0-.34,0-.17,0-.34c0-.34,0-.86,0-1s0-.17,0-.34,0-.37,0-.55,0-.31,0-.49,0-.18,0-.35,0-.24,0-.37,0-.25,0-.37,0-.25,0-.37a3.53,3.53,0,0,0,0-.38A1,1,0,0,0,70.25,1a.07.07,0,0,1,0-.09l.32-.05L71,.72c.13,0,.24-.13.37-.17l.32-.09c.11,0,.22,0,.33-.09s.19-.12.3-.16l.31-.13L72.85,0s.07,0,.06,0a1.92,1.92,0,0,0-.06.25,2,2,0,0,0-.11.32c0,.1,0,.21,0,.34s-.05.21-.06.33,0,.55,0,.67,0,.22,0,.34,0,.22,0,.34,0,.22,0,.34,0,.17,0,.34,0,.16,0,.33,0,.18,0,.35,0,.17,0,.34,0,.17,0,.34a1.2,1.2,0,0,0,0,.37c.08,0,.17,0,.37,0h.35c.12,0,.23,0,.34,0l.36,0,.34,0c.2,0,.27,0,.31,0s0-.21,0-.36,0-.21,0-.34,0-.22,0-.34,0-.22,0-.34,0-.23,0-.34,0-.22,0-.33,0-.23,0-.34,0-.23,0-.34,0-.24,0-.34,0-.26,0-.34,0-.22,0-.34,0-.22,0-.34,0-.23,0-.34,0-.23,0-.34a1.58,1.58,0,0,0-.07-.19c0-.06,0-.09.06-.06l.23.09.34.16c.12,0,.26.06.37.11L76,.52c.11,0,.23,0,.35.08l.34.1c.11,0,.22.09.34.12l.25.06s0,.06,0,.09a.77.77,0,0,0-.12.25,2.94,2.94,0,0,0-.08.37c0,.12,0,.25,0,.38s0,.25,0,.38,0,.25,0,.38S77,3,77,3.1s0,.17,0,.35,0,.17,0,.35,0,.17,0,.35,0,.17,0,.35,0,.17,0,.35,0,.17,0,.35,0,.17,0,.34,0,.17,0,.35,0,.17,0,.35,0,.17,0,.35,0,.17,0,.34,0,.18,0,.35,0,.17,0,.35,0,.17,0,.35,0,.17,0,.34,0,.26,0,.39,0,.25,0,.38.06.25.07.37a3.38,3.38,0,0,0,.09.37,2.4,2.4,0,0,1,0,.25s0,.1,0,.1H77c-.11,0-.22-.07-.34-.08s-.23,0-.34,0-.23,0-.34,0l-.35,0c-.12,0-.24-.06-.35-.05l-.35,0-.28,0s0,0,0-.06,0-.15.07-.24a2.58,2.58,0,0,0,0-.32c0-.1.07-.23.07-.36s0-.22,0-.35,0-.19,0-.32,0-.25,0-.37,0-.22,0-.35,0-.22,0-.34,0-.22,0-.34a2.28,2.28,0,0,0,0-.26c-.1-.06-.16,0-.36-.06H73.08C72.87,6.74,72.83,6.7,72.68,6.79Z"></path> <path class="cls-1" d="M79.11,4.1c0-.12,0-.24,0-.35s0-.24,0-.35,0-.24,0-.35,0-.24,0-.35,0-.25,0-.35S79,2.1,79,2a2.86,2.86,0,0,0,0-.36,1,1,0,0,0-.09-.19,0,0,0,0,1,0-.07l.19.07.32.13.32.14c.11,0,.2.12.31.16l.32.12.32.13.34.09c.11,0,.21.1.32.14l.34.08.33.12c.11,0,.21,0,.32.07l.35.1c.11,0,.21.12.32.15l.33.07.34.07L84,3.1s.08.07.07.09a1.34,1.34,0,0,0-.06.29c0,.11,0,.22,0,.34s0,.22,0,.34,0,.19,0,.31,0,.21,0,.32,0,.16,0,.24,0,0-.05,0a.77.77,0,0,0-.16-.21,1.47,1.47,0,0,0-.29-.22c-.09,0-.2-.06-.33-.11l-.35-.12-.33-.14c-.1,0-.2-.11-.32-.15l-.39-.15c-.12,0-.25-.06-.38-.09s-.06,0-.07,0,0,.15,0,.31,0,.19,0,.38,0,.18,0,.36,0,.18,0,.37a.94.94,0,0,0,0,.37l.32,0h.32l.31,0,.33,0c.11,0,.22,0,.32,0a2.34,2.34,0,0,0,.33-.05l.25,0a.05.05,0,0,1,.06.06.94.94,0,0,0,0,.25c0,.11,0,.2,0,.31s0,.2,0,.31,0,.22,0,.32,0,.18,0,.3a1.1,1.1,0,0,0,0,.19c0,.05-.05.1-.11,0a.31.31,0,0,0-.19-.09c-.11,0-.22,0-.35,0l-.35,0-.33,0c-.14,0-.3,0-.44,0a1.05,1.05,0,0,0-.38,0,2.58,2.58,0,0,0,0,.61,2.63,2.63,0,0,0,0,.34c0,.13,0,.36,0,.48s.2,0,.34,0l.34.06.35,0,.37,0,.37,0a2.59,2.59,0,0,0,.36-.08,1.8,1.8,0,0,0,.35-.1,2.25,2.25,0,0,0,.25-.12,0,0,0,0,1,.06,0,1.52,1.52,0,0,1,0,.23c0,.1-.09.2-.1.31s0,.22,0,.32,0,.22-.06.32,0,.22,0,.33,0,.15,0,.22,0,.08-.07.07l-.26,0c-.12,0-.23,0-.35,0l-.35,0-.35,0-.35,0h-.65l-.29,0c-.15,0-.14,0-.29,0l-.37,0c-.12,0-.25,0-.37,0h-.73c-.12,0-.25,0-.37,0a2.14,2.14,0,0,1-.28,0s0-.09,0-.11,0-.12.07-.18A1.51,1.51,0,0,0,79,9.61a3.2,3.2,0,0,0,0-.33c0-.1,0-.21,0-.33s0-.21,0-.33,0-.21,0-.33,0-.21,0-.33,0-.21,0-.33,0-.18,0-.35,0-.18,0-.36,0-.18,0-.35,0-.17,0-.35,0-.15,0-.32,0-.21,0-.38,0-.16,0-.33,0-.2,0-.37,0-.18,0-.35S79.11,4.28,79.11,4.1Z"></path> <path class="cls-1" d="M103.47,54.59a.65.65,0,0,1,0-.31.12.12,0,0,1,.06-.05l.26,0a1.9,1.9,0,0,0,.31-.06.83.83,0,0,0,.27-.17.72.72,0,0,0,.16-.2l.07-.06a1,1,0,0,1,.28,0,.83.83,0,0,1,.32,0c0,.16,0,.2,0,.37s0,.15,0,.33,0,.17,0,.35,0,.18,0,.35,0,.17,0,.34,0,.18,0,.36,0,.18,0,.35,0,.18,0,.35,0,.17,0,.22a.1.1,0,0,0,.08.08,1.3,1.3,0,0,0,.28,0H106a1,1,0,0,1,0,.46,1.68,1.68,0,0,1-.35,0c-.18,0-.18,0-.35,0s-.18,0-.35,0h-1.06c-.18,0-.25,0-.35,0a.57.57,0,0,1,0-.42,1.47,1.47,0,0,1,.43,0l.3,0s.07,0,.07-.07,0-.17,0-.27,0-.18,0-.37,0-.18,0-.37,0-.18,0-.37,0-.18,0-.37,0-.24,0-.33,0-.05-.06-.05a1.63,1.63,0,0,0-.35,0,1.15,1.15,0,0,1-.35,0A.15.15,0,0,1,103.47,54.59Z"></path> <path class="cls-1" d="M108.93,57a1,1,0,0,0,.29,0,.91.91,0,0,0,.27-.13.77.77,0,0,0,.19-.23.94.94,0,0,0,.14-.28,2,2,0,0,0,.05-.31c0-.08,0-.16,0-.25s-.06,0-.08,0l-.23.09a1.71,1.71,0,0,1-.32.12,2,2,0,0,1-.34,0,1.88,1.88,0,0,1-.33,0,1.57,1.57,0,0,1-.32-.09,1.27,1.27,0,0,1-.28-.18,1.08,1.08,0,0,1-.22-.25,1,1,0,0,1-.15-.29,1.15,1.15,0,0,1,0-.33,1.13,1.13,0,0,1,0-.32.9.9,0,0,1,.13-.27,1.32,1.32,0,0,1,.24-.25,1.39,1.39,0,0,1,.27-.17,1.77,1.77,0,0,1,.3-.12l.32-.06h.32l.33,0,.32.06a1.74,1.74,0,0,1,.3.14,1.52,1.52,0,0,1,.28.17,1.43,1.43,0,0,1,.23.23,1.51,1.51,0,0,1,.19.27,1.78,1.78,0,0,1,.12.31,2.17,2.17,0,0,1,.07.32,2.75,2.75,0,0,1,0,.33,2.57,2.57,0,0,1,0,.34,2.3,2.3,0,0,1-.05.34,1.9,1.9,0,0,1-.15.32,1.73,1.73,0,0,1-.18.3,1.65,1.65,0,0,1-.25.25,1.7,1.7,0,0,1-.28.2,1.9,1.9,0,0,1-.33.12,2.17,2.17,0,0,1-.34.07,2.48,2.48,0,0,1-.35,0,2.52,2.52,0,0,1-.35,0,1.91,1.91,0,0,1-.33-.09,1.4,1.4,0,0,1-.32-.12.82.82,0,0,1-.24-.24.58.58,0,0,1-.09-.33.41.41,0,0,1,.18-.35.63.63,0,0,1,.38-.15.68.68,0,0,1,.36.1.4.4,0,0,1,.19.33.35.35,0,0,1-.21.31c-.05,0,0,.08,0,.1A.75.75,0,0,0,108.93,57Zm-.41-2.25a.81.81,0,0,0,.07.38.62.62,0,0,0,.27.27,1.15,1.15,0,0,0,.75,0,.64.64,0,0,0,.28-.26.76.76,0,0,0,.08-.37.88.88,0,0,0-.07-.38.57.57,0,0,0-.28-.25.85.85,0,0,0-.37-.08.92.92,0,0,0-.37.07.55.55,0,0,0-.27.26A.77.77,0,0,0,108.53,54.76Z"></path> <path class="cls-1" d="M114.34,54a1,1,0,0,0-.29.06.89.89,0,0,0-.27.12.77.77,0,0,0-.2.21,1,1,0,0,0-.1.3,1.77,1.77,0,0,0-.06.31c0,.08,0,.16,0,.26a0,0,0,0,0,.05,0l.25-.13a1.62,1.62,0,0,1,.33-.09,1.88,1.88,0,0,1,.34,0,1.85,1.85,0,0,1,.33,0,1.53,1.53,0,0,1,.32.11,1.32,1.32,0,0,1,.3.14,1.11,1.11,0,0,1,.22.25,1,1,0,0,1,.13.3,1.16,1.16,0,0,1,0,.65,1,1,0,0,1-.15.29,1.13,1.13,0,0,1-.23.22,1.37,1.37,0,0,1-.27.16,1.74,1.74,0,0,1-.3.11l-.31.06a2.67,2.67,0,0,1-.32,0l-.33,0a2.24,2.24,0,0,1-.33,0,1.72,1.72,0,0,1-.3-.13,1.58,1.58,0,0,1-.28-.18,1.46,1.46,0,0,1-.23-.23,1.54,1.54,0,0,1-.16-.28,1.75,1.75,0,0,1-.13-.3,2.18,2.18,0,0,1-.06-.32,2.67,2.67,0,0,1,0-.33,2.58,2.58,0,0,1,0-.34,2.21,2.21,0,0,1,.07-.34,2,2,0,0,1,.11-.33,1.7,1.7,0,0,1,.2-.28A1.61,1.61,0,0,1,113,54a1.66,1.66,0,0,1,.28-.2,1.87,1.87,0,0,1,.32-.12,2.11,2.11,0,0,1,.33-.09l.35,0,.34,0a2,2,0,0,1,.34.07,1.34,1.34,0,0,1,.31.15.8.8,0,0,1,.24.24.56.56,0,0,1,.11.32.43.43,0,0,1-.18.36.65.65,0,0,1-.39.14.63.63,0,0,1-.35-.13.35.35,0,0,1-.19-.29.37.37,0,0,1,.2-.33s0,0,0-.06A.5.5,0,0,0,114.34,54Zm-1,2.25a.83.83,0,0,0,.09.37.55.55,0,0,0,.25.27A.85.85,0,0,0,114,57a.89.89,0,0,0,.37-.09.55.55,0,0,0,.28-.24.79.79,0,0,0,.09-.37.78.78,0,0,0-.1-.36.58.58,0,0,0-.26-.26.83.83,0,0,0-.37-.07.85.85,0,0,0-.37,0,.64.64,0,0,0-.27.26A.76.76,0,0,0,113.3,56.26Z"></path> <path class="cls-1" d="M118.14,57.27a2.29,2.29,0,0,1,0-.31c0-.13,0-.25,0-.36a2.16,2.16,0,0,1,.07-.36,1.67,1.67,0,0,1,.15-.33,2.17,2.17,0,0,1,.22-.29c.07-.09.16-.17.25-.26s.15-.18.24-.27.19-.14.25-.2.16-.17.22-.23l.11-.11s0-.07,0-.06l-.12,0a1,1,0,0,1-.28,0,2,2,0,0,1-.4,0l-.39-.06a1.08,1.08,0,0,0-.17,0,.56.56,0,0,0-.35.13.51.51,0,0,0-.2.3,1.74,1.74,0,0,0,0,.38s0,.05,0,.08a.12.12,0,0,1-.06.08,1.19,1.19,0,0,1-.39,0,.16.16,0,0,1-.06-.09c0-.06,0-.14,0-.26s0-.16,0-.33,0-.17,0-.34,0-.15,0-.32,0-.19,0-.28,0-.07.07-.08a1.53,1.53,0,0,1,.34,0c.05,0,.06,0,.07.1a1.08,1.08,0,0,0,0,.34,1.55,1.55,0,0,1,.25-.28.78.78,0,0,1,.32-.16,1.31,1.31,0,0,1,.36,0,1.37,1.37,0,0,1,.34,0l.33.1.33.1a.75.75,0,0,0,.26,0c.17,0,.25,0,.31-.18a.18.18,0,0,1,.08-.05,1,1,0,0,1,.33,0s0,0,0,.1a1.12,1.12,0,0,1,0,.31,1,1,0,0,1-.12.29c0,.07-.12.15-.19.25l-.2.24c-.07.09-.13.19-.19.28l-.19.27c-.06.1-.11.2-.15.29s-.09.15-.16.29a1.33,1.33,0,0,0-.08.32c0,.1,0,.22-.05.33s0,.21,0,.33,0,.16,0,.25,0,.08-.05.08h-.3a1.7,1.7,0,0,0-.36,0,1.44,1.44,0,0,1-.28,0C118.16,57.36,118.15,57.35,118.14,57.27Z"></path> <path class="cls-1" d="M28.91,55.15c-.08.06-.12,0-.25,0s-.14,0-.24,0a.2.2,0,0,1,0-.08l-.06-.22a1.41,1.41,0,0,0-.09-.27.51.51,0,0,0-.17-.22.65.65,0,0,0-.28-.12,2.82,2.82,0,0,0-.3,0H26.9a2,2,0,0,0-.23,0l0,0a1.8,1.8,0,0,0,0,.31c0,.17,0,.17,0,.34a2.47,2.47,0,0,0,0,.3c0,.05,0,.05.08.05a1.35,1.35,0,0,0,.35,0,.28.28,0,0,0,.21-.22,1.52,1.52,0,0,0,.05-.31c.06,0,.13,0,.26,0a1.38,1.38,0,0,1,.27,0c0,.15,0,.17,0,.34s0,.16,0,.33,0,.16,0,.33,0,.16,0,.33,0,.21,0,.34-.14,0-.27,0a1.07,1.07,0,0,1-.26,0c0-.05,0-.26,0-.34a.27.27,0,0,0-.2-.24,1.42,1.42,0,0,0-.33,0h-.08s0,0,0,.06c0,.21,0,.31,0,.45s0,.21,0,.35a.8.8,0,0,0,0,.28.91.91,0,0,0,.27,0l.28,0h.31a1.74,1.74,0,0,0,.3,0,.65.65,0,0,0,.26-.14.61.61,0,0,0,.2-.23,1.55,1.55,0,0,0,.1-.29c0-.09,0-.17,0-.28s.14,0,.27,0,.18,0,.25,0a1.07,1.07,0,0,1,0,.29c0,.15,0,.15,0,.3s0,.15,0,.3,0,.15,0,.3a1,1,0,0,1,0,.3c-.11,0-.15,0-.3,0H28c-.15,0-.15,0-.3,0s-.45,0-.6,0-.34,0-.6,0h-.6c-.15,0-.15,0-.3,0h-.31a1.3,1.3,0,0,1-.29,0,1,1,0,0,1,0-.26.89.89,0,0,1,0-.23c.1,0,.13,0,.25,0l.37,0s0,0,0-.1,0-.33,0-.47,0-.15,0-.29,0-.15,0-.29,0-.15,0-.29,0-.15,0-.29,0-.15,0-.29,0-.15,0-.29c0-.31,0-.29-.09-.31l-.31,0c-.12,0-.16.05-.25,0A1.51,1.51,0,0,1,25,54a.67.67,0,0,1,0-.23.91.91,0,0,1,.3,0h.3c.15,0,.15,0,.3,0h.3c.15,0,.15,0,.3,0l.3,0h.6c.15,0,.15,0,.3,0h.91c.15,0,.21,0,.3,0s0,.16,0,.34,0,.17,0,.34,0,.19,0,.35A1.33,1.33,0,0,1,28.91,55.15Z"></path> <path class="cls-1" d="M30.59,57.43a1.83,1.83,0,0,1,0-.35c0-.21,0-.35,0-.49s0-.14,0-.28,0-.18,0-.27a1,1,0,0,1,.26,0c.13,0,.14,0,.27,0a2.05,2.05,0,0,0,.08.27.75.75,0,0,0,.14.23,1.05,1.05,0,0,0,.21.17,1.5,1.5,0,0,0,.55.25,1.66,1.66,0,0,0,.31,0,1.51,1.51,0,0,0,.32,0A.7.7,0,0,0,33,56.8a.32.32,0,0,0,.14-.26.37.37,0,0,0-.21-.34,1.77,1.77,0,0,0-.26-.06l-.26-.05L32.07,56c-.12,0-.23-.08-.34-.1s-.26,0-.35-.06a1.83,1.83,0,0,1-.27-.14,1.13,1.13,0,0,1-.26-.15,1,1,0,0,1-.2-.22.66.66,0,0,1-.14-.49,1.11,1.11,0,0,1,.05-.31,1,1,0,0,1,.12-.3,1,1,0,0,1,.24-.21,1.3,1.3,0,0,1,.27-.17,1.86,1.86,0,0,1,.31-.09,2.41,2.41,0,0,1,.31-.06h.63l.31,0a1.7,1.7,0,0,1,.3.09l.24.12h0a2,2,0,0,0,.07-.22,1,1,0,0,1,.29,0c.12,0,.15,0,.25,0a3.25,3.25,0,0,1,0,.33c0,.16,0,.16,0,.33s0,.17,0,.33,0,.2,0,.33-.14,0-.28,0-.14,0-.27,0a1.72,1.72,0,0,0-.07-.26.75.75,0,0,0-.17-.22.86.86,0,0,0-.2-.19,1.21,1.21,0,0,0-.26-.1l-.27-.06a1.88,1.88,0,0,0-.27,0,1.15,1.15,0,0,0-.29,0,.59.59,0,0,0-.25.13.32.32,0,0,0-.13.25.28.28,0,0,0,.21.28,1.74,1.74,0,0,0,.36.09l.33.08.34,0,.33.09.32.1a1.7,1.7,0,0,1,.3.16,1.12,1.12,0,0,1,.26.22,1,1,0,0,1,.18.29,1.06,1.06,0,0,1,0,.34,1,1,0,0,1,0,.32,1.07,1.07,0,0,1-.15.29,1.12,1.12,0,0,1-.24.22,1.11,1.11,0,0,1-.3.17,2,2,0,0,1-.34.1l-.29.06h-.56l-.27,0c-.09,0-.17-.06-.26-.08a1.43,1.43,0,0,1-.24-.09l-.2-.08c-.06,0-.1,0-.11,0s0,.12,0,.2a1.37,1.37,0,0,1-.28,0C30.69,57.44,30.7,57.46,30.59,57.43Z"></path> <path class="cls-1" d="M39.1,55.16c-.07.05-.14,0-.27,0s-.18,0-.24,0a1.26,1.26,0,0,1,0-.3.76.76,0,0,0-.09-.28.57.57,0,0,0-.21-.2.77.77,0,0,0-.27-.11,1.2,1.2,0,0,0-.26,0s0,0,0,0a2.6,2.6,0,0,0,0,.27c0,.16,0,.16,0,.32s0,.16,0,.32,0,.16,0,.32,0,.16,0,.32,0,.16,0,.32,0,.16,0,.32a2.05,2.05,0,0,0,0,.25c0,.12,0,.14.16.14l.25,0a1.07,1.07,0,0,1,.26,0,1.81,1.81,0,0,1,0,.47,1.25,1.25,0,0,1-.3,0c-.15,0-.15,0-.29,0h-.88l-.29,0c-.15,0-.15,0-.29,0s-.21.05-.29,0a.71.71,0,0,1,0-.46.72.72,0,0,1,.28,0l.28,0c.12,0,.12,0,.11-.17s0-.38,0-.54,0-.16,0-.32,0-.16,0-.32,0-.16,0-.32,0-.16,0-.32,0-.14,0-.3a2.08,2.08,0,0,0,0-.31l0,0-.26,0a.74.74,0,0,0-.27.11.54.54,0,0,0-.19.21.88.88,0,0,0-.1.27c0,.09,0,.18,0,.28a1.06,1.06,0,0,1-.27,0,1.29,1.29,0,0,1-.3,0,1.5,1.5,0,0,1,0-.34c0-.17,0-.17,0-.35s0-.17,0-.35a2.76,2.76,0,0,1,0-.36c.06,0,.17,0,.33,0h.32c.16,0,.16,0,.32,0s.16,0,.32,0,.16,0,.32,0h1l.32,0h.32c.16,0,.16,0,.32,0s.22,0,.31,0a1,1,0,0,1,0,.34c0,.17,0,.17,0,.35s0,.16,0,.35A1.61,1.61,0,0,1,39.1,55.16Z"></path> <path class="cls-1" d="M40.8,54.39c0-.11,0-.11-.09-.1l-.32,0c-.12,0-.15,0-.23,0a1,1,0,0,1,0-.23c0-.12,0-.13,0-.22a1,1,0,0,1,.29,0h.29c.15,0,.15,0,.3,0l.29,0h.3l.3,0c.15,0,.15,0,.3,0h.3l.3,0,.29.05a2.63,2.63,0,0,1,.29.05,1.84,1.84,0,0,1,.27.13,1.81,1.81,0,0,1,.26.13,1.52,1.52,0,0,1,.26.2,1.46,1.46,0,0,1,.16.28,1.53,1.53,0,0,1,.14.29,1.9,1.9,0,0,1,.06.32,2.32,2.32,0,0,1,0,.32,2.37,2.37,0,0,1,0,.32,1.83,1.83,0,0,1-.09.31,1.64,1.64,0,0,1-.1.31,1.45,1.45,0,0,1-.21.25,1.48,1.48,0,0,1-.24.22,1.8,1.8,0,0,1-.26.14,1.87,1.87,0,0,1-.27.12,2.62,2.62,0,0,1-.29.05c-.09,0-.19,0-.29.06h-.3l-.3,0H40.44c-.15,0-.19,0-.31,0a.93.93,0,0,1,0-.25.76.76,0,0,1,0-.24c.1,0,.13,0,.25,0l.31,0c.14,0,.12,0,.12-.2s0-.23,0-.37,0-.15,0-.29,0-.15,0-.29,0-.14,0-.29,0-.15,0-.29,0-.15,0-.29S40.79,54.53,40.8,54.39Zm1.41,2.55a1.92,1.92,0,0,0,.34-.06,1.28,1.28,0,0,0,.33-.09.78.78,0,0,0,.29-.19,1,1,0,0,0,.15-.32,1.89,1.89,0,0,0,.08-.34,2.85,2.85,0,0,0,0-.35,3,3,0,0,0,0-.32,1.78,1.78,0,0,0-.1-.3,1.25,1.25,0,0,0-.1-.29.75.75,0,0,0-.21-.23.92.92,0,0,0-.26-.11,1.33,1.33,0,0,0-.28-.08h-.29l-.37,0a.09.09,0,0,0,0,0c0,.09,0,.1,0,.23s0,.14,0,.29,0,.15,0,.3,0,.15,0,.3,0,.14,0,.29,0,.16,0,.31,0,.15,0,.3,0,.15,0,.3,0,.14,0,.19,0,.13.08.13Z"></path> <path class="cls-1" d="M61.64,7.31c0-.19-.12-.36-.14-.52s0-.38,0-.53c-.07-.58-.19-.92-.27-.92s-.16.35-.24.93c0,.16-.05.33-.07.52s0,.34-.06.53,0,.43,0,.66a4.72,4.72,0,0,1-.15.66c-.1.4-.22.62-.68.64a3.83,3.83,0,0,1-.84-.16,5.67,5.67,0,0,1-.82-.24c-.22-.09-.45-.19-.68-.3s-.45-.2-.67-.31-.38-.32-.61-.43-.47-.15-.7-.26-.42-.25-.65-.36-.47-.14-.7-.24l-.6-.21c-.2-.06-.39-.2-.59-.24a5.53,5.53,0,0,0-.63-.1,4.76,4.76,0,0,0-.64,0,4.08,4.08,0,0,0-.64.1,3.67,3.67,0,0,0-.63.16,3.28,3.28,0,0,0-.53.38,2.89,2.89,0,0,0-.51.39,2.29,2.29,0,0,0-.34.58,1.76,1.76,0,0,0-.2.64,1.9,1.9,0,0,0,.13.93s0,0,0,0c-.17-.1-.33-.24-.52-.34S48.23,9.15,48,9s-.37-.27-.58-.37-.43-.18-.66-.27-.45-.12-.69-.18a4.47,4.47,0,0,0-.83-.09,3.47,3.47,0,0,0-.83,0,3.2,3.2,0,0,0-.59.16,2.78,2.78,0,0,0-.58.22c-.17.11-.26.32-.4.48a1.76,1.76,0,0,0-.44.86,1.89,1.89,0,0,0,0,.62,0,0,0,0,1,0,0l-.64-.3c-.21-.1-.41-.23-.65-.33s-.35-.13-.54-.19-.36-.08-.56-.13a3.48,3.48,0,0,0-.67-.14,3.09,3.09,0,0,0-.69,0,2.62,2.62,0,0,0-.76.22,2.17,2.17,0,0,0-.56.55A1.52,1.52,0,0,0,37,11a1.35,1.35,0,0,0,.12.82c0,.08.07.15.11.22s0,.07,0,.06L36.66,12,36,12c-.2,0-.41,0-.64,0l-.67,0c-.22,0-.44,0-.68,0s-.44-.07-.67-.09-.44-.05-.67-.07-.52-.06-.79-.07-.53.06-.8,0-.38-.06-.58-.07-.39,0-.59,0-.38,0-.58,0l-.69,0c-.23,0-.47,0-.69,0l-.69.09c-.23,0-.45.11-.68.16s-.47.06-.68.13-.44.17-.65.24-.45.12-.66.2-.42.21-.63.3-.4.25-.59.36-.44.17-.6.28a5.86,5.86,0,0,0-.47.39,4.68,4.68,0,0,0-.48.41c-.3.33-.4.59-.35.64s.23-.09.55-.27c.15-.09.36-.15.57-.26s.34-.2.54-.29.38-.14.59-.23.42-.2.66-.29.46-.12.7-.19.45-.16.69-.22l.71-.14c.23,0,.46-.14.71-.17l.72-.1.73-.07c.24,0,.49,0,.73,0s.56,0,.84,0,.56,0,.84,0,.54.05.81.06.54,0,.8,0h.69c.23,0,.45,0,.67,0s.47-.06.69-.07.47,0,.68,0l.77-.05c.29,0,.53-.12.75-.15s.58,0,.74-.07a1.85,1.85,0,0,0,.48.14,2.47,2.47,0,0,0,1,.17,1.84,1.84,0,0,0,.77-.34,1.87,1.87,0,0,0,.48-.35c.19-.25.25-.43.19-.49s-.26,0-.51.06a1.66,1.66,0,0,1-.95.18,1.72,1.72,0,0,1-.61-.18.7.7,0,0,1-.36-.37c0-.12-.08-.21,0-.35a1.25,1.25,0,0,1,.65-.34,2.25,2.25,0,0,1,.63,0,5,5,0,0,1,.6.2c.2,0,.42,0,.62.09l.57.19c.2.06.39.1.58.16l.58.15a4.94,4.94,0,0,0,.8.16,2.6,2.6,0,0,0,.48.25,2.82,2.82,0,0,0,.6.13,2.76,2.76,0,0,0,.61,0,2.47,2.47,0,0,0,1-.19,2,2,0,0,0,.52-.52c.26-.29.34-.43.28-.5s-.24,0-.56.1a2.68,2.68,0,0,1-.59.27,2,2,0,0,1-.66,0,2.37,2.37,0,0,1-.79-.33,1,1,0,0,1-.51-.52.5.5,0,0,1,.09-.59,1.7,1.7,0,0,1,.91-.44,2.73,2.73,0,0,1,.81,0,5.34,5.34,0,0,1,.79.15c.26.08.52.14.77.23s.44.26.67.35.49.15.72.23.49.16.72.22a6.59,6.59,0,0,0,.72.22,3.72,3.72,0,0,0,.74.08,3.4,3.4,0,0,0,.53.09,3.81,3.81,0,0,0,.77.11,3.26,3.26,0,0,0,.78-.07,2.71,2.71,0,0,0,.54-.22,3.33,3.33,0,0,0,.51-.28c.48-.38.63-.68.58-.74s-.34.07-.85.29a3,3,0,0,1-.91.25,2.82,2.82,0,0,1-.61,0,3.35,3.35,0,0,1-.58-.19,2.43,2.43,0,0,1-.61-.27,1.5,1.5,0,0,1-.42-.51.82.82,0,0,1-.15-.56,1,1,0,0,1,.32-.5,1.9,1.9,0,0,1,.71-.43A2.63,2.63,0,0,1,52,7.68a3.62,3.62,0,0,1,.68,0,5.47,5.47,0,0,1,.66.18c.21.06.43.12.65.21s.44.22.67.32.47.16.69.27.43.25.65.36.43.24.66.34l.67.31c.23.1.46.17.7.25a7.21,7.21,0,0,0,.7.18,5.17,5.17,0,0,0,.7.17,4.19,4.19,0,0,0,.73,0,2.14,2.14,0,0,0,.56-.23,1.46,1.46,0,0,0,.52-.29,1.53,1.53,0,0,0,.31-.46,1.72,1.72,0,0,0,.09-.54,5.25,5.25,0,0,0,0-.79C61.58,7.74,61.66,7.51,61.64,7.31Z"></path> <path class="cls-1" d="M126.43,14.81a3.93,3.93,0,0,0-.44-.45c-.15-.12-.31-.27-.49-.4s-.36-.2-.55-.31-.35-.31-.56-.42-.42-.18-.64-.27-.43-.15-.66-.23-.44-.12-.67-.18-.45-.1-.68-.16-.45-.07-.68-.11-.44-.15-.67-.18-.46-.07-.69-.09-.46,0-.7,0-.39-.07-.58-.07h-.59c-.2,0-.39.1-.58.1s-.54,0-.8,0-.54.05-.8.06l-.68,0c-.23,0-.46.05-.67.06s-.46-.05-.68,0-.46.09-.67.1-.43,0-.63,0l-.62,0c-.2,0-.38.06-.54.08s0,0,0,0a1.5,1.5,0,0,0,.43-.45,1.5,1.5,0,0,0,.08-.87,1.52,1.52,0,0,0-.36-.76,2.08,2.08,0,0,0-.57-.52,2.61,2.61,0,0,0-.73-.28,3.16,3.16,0,0,0-.69,0,3.34,3.34,0,0,0-.66.14c-.19,0-.43.07-.61.13s-.32.18-.49.25-.45.21-.65.31l-.6.26s-.08,0-.08,0a1.91,1.91,0,0,0,0-.59,1.76,1.76,0,0,0-.43-.87,2.32,2.32,0,0,0-.46-.38,2.64,2.64,0,0,0-.52-.3,3.28,3.28,0,0,0-.58-.2,3.53,3.53,0,0,0-.83,0,4.26,4.26,0,0,0-.81.16c-.24.06-.5.09-.71.17s-.43.17-.63.27-.42.21-.61.31-.41.24-.6.34-.42.19-.61.27a0,0,0,0,1,0,0,1.91,1.91,0,0,0,.17-.94A1.78,1.78,0,0,0,99.36,8,2.37,2.37,0,0,0,99,7.4,3,3,0,0,0,98.5,7,3.3,3.3,0,0,0,98,6.64a3.72,3.72,0,0,0-.64-.16,4.12,4.12,0,0,0-.65-.1,4.76,4.76,0,0,0-.64,0,5.54,5.54,0,0,0-.62.17c-.21,0-.43,0-.63.11s-.4.16-.59.24-.45.21-.67.32-.48.14-.7.25-.43.25-.65.36-.42.27-.64.38-.47.17-.69.28-.44.23-.66.32a5.58,5.58,0,0,1-.81.23,3.54,3.54,0,0,1-.82.13c-.46,0-.59-.16-.69-.56A5.54,5.54,0,0,1,87.79,8c0-.23,0-.45-.05-.66s0-.37,0-.53-.1-.37-.12-.53c-.07-.58-.14-.92-.22-.92s-.15.35-.23.93c0,.16,0,.33-.05.52s0,.37-.06.56-.08.39-.1.62a5.74,5.74,0,0,0,0,.8,1.87,1.87,0,0,0,.11.56,1.66,1.66,0,0,0,.36.44,1.46,1.46,0,0,0,.52.29,2.19,2.19,0,0,0,.57.24,4.25,4.25,0,0,0,.73,0,5.23,5.23,0,0,0,.71-.17c.23-.06.45-.17.68-.25s.48-.12.71-.22.43-.23.66-.34L92.61,9l.67-.31c.22-.11.46-.18.68-.28s.46-.18.68-.27.4-.23.62-.3a5.12,5.12,0,0,1,.67-.09,3.81,3.81,0,0,1,.67-.09,2.69,2.69,0,0,1,.83.15,2,2,0,0,1,.72.43,1.06,1.06,0,0,1,.31.51.84.84,0,0,1-.15.57,1.52,1.52,0,0,1-.43.5,2.43,2.43,0,0,1-.62.26,3.32,3.32,0,0,1-.58.18,2.69,2.69,0,0,1-.61,0,3.12,3.12,0,0,1-.92-.2c-.5-.22-.82-.41-.88-.34s.15.37.63.76a3.16,3.16,0,0,0,.5.29,2.72,2.72,0,0,0,.54.21,3.25,3.25,0,0,0,.78.06,3.68,3.68,0,0,0,.79,0c.17,0,.32-.2.49-.27a3.16,3.16,0,0,0,.76,0,6.24,6.24,0,0,0,.73-.18c.23-.07.45-.21.69-.3s.49-.09.73-.18l.7-.28c.25-.09.5-.16.76-.24a5.65,5.65,0,0,1,.76-.27,2.71,2.71,0,0,1,.81,0,1.61,1.61,0,0,1,.89.44.58.58,0,0,1,.21.59,1.18,1.18,0,0,1-.57.56,2.26,2.26,0,0,1-.83.17,1.94,1.94,0,0,1-.64,0,2.83,2.83,0,0,1-.61-.22c-.31-.14-.52-.21-.58-.14s0,.25.3.54a2,2,0,0,0,.53.51,2.46,2.46,0,0,0,1,.21,2.78,2.78,0,0,0,.62,0,2.91,2.91,0,0,0,.6-.15,2.48,2.48,0,0,0,.49-.22,4.61,4.61,0,0,0,.81-.12c.18,0,.39-.08.59-.15l.57-.2c.19-.06.35-.21.54-.27s.41-.09.61-.14a4.76,4.76,0,0,1,.61-.14,2.12,2.12,0,0,1,.62.07,1.16,1.16,0,0,1,.63.31.28.28,0,0,1,.08.32.73.73,0,0,1-.37.37,1.74,1.74,0,0,1-.61.19,1.85,1.85,0,0,1-1-.1c-.25-.11-.44-.25-.5-.18s0,.27.22.53a1.62,1.62,0,0,0,.43.44,2.06,2.06,0,0,0,.83.17,2.3,2.3,0,0,0,.95-.08h.08s0,.06.06,0a7.3,7.3,0,0,0,.8.1l.79.09c.24,0,.5.12.79.14s.45,0,.69,0,.44.12.68.13H115c.22,0,.45-.05.68-.05h.8c.26,0,.53,0,.8,0s.56-.05.84-.06.56,0,.84,0,.49,0,.73,0,.48.07.72.1.48.08.72.12.47.12.71.17.49.07.72.13.49.07.72.14.46.18.68.26.44.24.65.33.41.13.58.21.41.15.58.24l.54.31c.32.18.5.34.56.28S126.74,15.15,126.43,14.81Z"></path> </g> </g> </svg> 